<svg width="199" height="82" viewBox="0 0 199 82" fill="none" xmlns="http://www.w3.org/2000/svg">
<rect x="1.13889" y="1.13889" width="195.889" height="79.7222" rx="5.69445" stroke="#343434" stroke-width="2.27778"/>
<rect x="31.7001" y="13.4782" width="136.581" height="37.8778" stroke="#676767" stroke-width="4.17857"/>
<rect x="31.7001" y="13.4782" width="136.581" height="55.0437" stroke="#676767" stroke-width="4.17857"/>
<rect x="94.8408" y="32.8463" width="7.28286" height="7.28286" transform="rotate(-45 94.8408 32.8463)" fill="#676767"/>
<rect x="39.9106" y="20.8301" width="6.86634" height="23.1739" fill="#676767"/>
<rect x="91.4077" y="29.4131" width="6.86634" height="23.1739" transform="rotate(90 91.4077 29.4131)" fill="#676767"/>
<rect x="160.072" y="20.8301" width="6.86635" height="24.0322" transform="rotate(90 160.072 20.8301)" fill="#676767"/>
<rect x="151.488" y="44.004" width="6.86634" height="23.1739" transform="rotate(-180 151.488 44.004)" fill="#676767"/>
<rect x="63.0845" y="37.1376" width="6.86634" height="23.1739" transform="rotate(90 63.0845 37.1376)" fill="#676767"/>
<rect x="75.1001" y="44.004" width="6.86634" height="23.1739" transform="rotate(-180 75.1001 44.004)" fill="#676767"/>
<rect x="63.0845" y="20.8301" width="6.86634" height="23.1739" transform="rotate(90 63.0845 20.8301)" fill="#676767"/>
<rect x="91.4077" y="44.004" width="6.86634" height="23.1739" transform="rotate(-180 91.4077 44.004)" fill="#676767"/>
<path d="M131.748 20.8301V27.6965L108.574 27.6965L108.574 20.8301L131.748 20.8301Z" fill="#676767"/>
<path d="M131.748 29.4131V36.2794L108.574 36.2794L108.574 29.4131L131.748 29.4131Z" fill="#676767"/>
<path d="M115.44 44.0041H108.574L108.574 20.8301L115.44 20.8301L115.44 44.0041Z" fill="#676767"/>
<path d="M131.748 44.0041H124.881L124.881 20.8301L131.748 20.8301V44.0041Z" fill="#676767"/>
<path d="M55.534 63.0201V55.6993H57.8907C58.3788 55.6993 58.8033 55.7795 59.1643 55.94C59.5321 56.0937 59.8162 56.311 60.0168 56.5918C60.224 56.8726 60.3277 57.2002 60.3277 57.5746C60.3277 58.056 60.1772 58.4438 59.8764 58.7379C59.5755 59.0321 59.1777 59.1792 58.683 59.1792V59.109C59.2245 59.1023 59.6591 59.2628 59.9867 59.5904C60.321 59.918 60.4881 60.3559 60.4881 60.9041C60.4881 61.3253 60.3811 61.6964 60.1672 62.0173C59.9599 62.3315 59.6691 62.5789 59.2947 62.7594C58.9203 62.9332 58.4824 63.0201 57.981 63.0201H55.534ZM56.9881 61.8067H57.9208C58.2484 61.8067 58.5058 61.7198 58.693 61.5459C58.8802 61.3721 58.9738 61.1314 58.9738 60.8239C58.9738 60.5163 58.8802 60.2757 58.693 60.1018C58.5058 59.9213 58.2484 59.8311 57.9208 59.8311H56.9881V61.8067ZM56.9881 58.6477H57.8707C58.1648 58.6477 58.3955 58.5708 58.5626 58.417C58.7298 58.2566 58.8133 58.0426 58.8133 57.7752C58.8133 57.5011 58.7298 57.2905 58.5626 57.1434C58.3955 56.9896 58.1648 56.9127 57.8707 56.9127H56.9881V58.6477ZM77.0815 63.0201V55.6993H78.5858V61.6663H81.5442V63.0201H77.0815ZM99.9929 63.1204C99.5048 63.1204 99.0803 63.0302 98.7192 62.8497C98.3582 62.6625 98.0774 62.4051 97.8768 62.0775C97.683 61.7432 97.586 61.3554 97.586 60.9141V57.8053C97.586 57.364 97.683 56.9796 97.8768 56.652C98.0774 56.3177 98.3582 56.0603 98.7192 55.8798C99.0803 55.6926 99.5048 55.599 99.9929 55.599C100.488 55.599 100.912 55.6926 101.266 55.8798C101.628 56.0603 101.905 56.3177 102.099 56.652C102.299 56.9796 102.4 57.364 102.4 57.8053V60.9141C102.4 61.3554 102.299 61.7432 102.099 62.0775C101.905 62.4051 101.628 62.6625 101.266 62.8497C100.912 63.0302 100.488 63.1204 99.9929 63.1204ZM99.9929 61.8167C100.294 61.8167 100.518 61.7398 100.665 61.5861C100.819 61.4256 100.895 61.2016 100.895 60.9141V57.8053C100.895 57.5111 100.822 57.2871 100.675 57.1334C100.528 56.9796 100.3 56.9027 99.9929 56.9027C99.6853 56.9027 99.458 56.9796 99.3109 57.1334C99.1638 57.2871 99.0903 57.5111 99.0903 57.8053V60.9141C99.0903 61.2016 99.1638 61.4256 99.3109 61.5861C99.4647 61.7398 99.692 61.8167 99.9929 61.8167ZM121.089 63.1204C120.601 63.1204 120.173 63.0302 119.805 62.8497C119.438 62.6625 119.15 62.4051 118.943 62.0775C118.742 61.7432 118.642 61.3554 118.642 60.9141V57.8053C118.642 57.3573 118.742 56.9696 118.943 56.642C119.15 56.3144 119.438 56.0603 119.805 55.8798C120.173 55.6926 120.601 55.599 121.089 55.599C121.584 55.599 122.012 55.6926 122.373 55.8798C122.74 56.0603 123.025 56.3144 123.225 56.642C123.432 56.9696 123.536 57.3573 123.536 57.8053H122.032C122.032 57.5111 121.948 57.2871 121.781 57.1334C121.621 56.9796 121.39 56.9027 121.089 56.9027C120.788 56.9027 120.554 56.9796 120.387 57.1334C120.227 57.2871 120.146 57.5111 120.146 57.8053V60.9141C120.146 61.2016 120.227 61.4256 120.387 61.5861C120.554 61.7398 120.788 61.8167 121.089 61.8167C121.39 61.8167 121.621 61.7398 121.781 61.5861C121.948 61.4256 122.032 61.2016 122.032 60.9141H123.536C123.536 61.3554 123.432 61.7432 123.225 62.0775C123.025 62.4051 122.74 62.6625 122.373 62.8497C122.012 63.0302 121.584 63.1204 121.089 63.1204ZM139.748 63.0201V55.6993H141.253V58.5775H141.955L143.178 55.6993H144.803L143.278 59.1692L144.863 63.0201H143.218L141.965 59.8812H141.253V63.0201H139.748Z" fill="#676767"/>
</svg>
