<svg width="248" height="83" viewBox="0 0 248 83" fill="none" xmlns="http://www.w3.org/2000/svg">
<rect x="0.846939" y="0.846939" width="245.612" height="81.3061" rx="4.23469" stroke="#343434" stroke-width="1.69388"/>
<path d="M23.201 70.2427H20.2477L19.8258 72.104H18.1134L20.1857 63.418H23.263L25.3352 72.104H23.6228L23.201 70.2427ZM20.5951 68.6792H22.8411L21.836 64.2369H21.6127L20.5951 68.6792ZM34.3725 72.104H32.7346V69.4982C32.7346 69.2997 32.6808 69.1383 32.5733 69.0143C32.474 68.8902 32.3044 68.8281 32.0645 68.8281H30.1784V72.104H28.5405V63.418H31.866C32.3127 63.418 32.7056 63.48 33.0448 63.6041C33.384 63.7282 33.6652 63.9019 33.8886 64.1252C34.1202 64.3403 34.2939 64.5926 34.4097 64.8822C34.5338 65.1717 34.5959 65.4819 34.5959 65.8128V66.1106C34.5959 66.4663 34.5007 66.8014 34.3105 67.1157C34.1202 67.4218 33.8265 67.6576 33.4295 67.823V68.0464C33.719 68.0795 33.9465 68.1911 34.1119 68.3814C34.2857 68.5717 34.3725 68.8116 34.3725 69.1011V72.104ZM30.1784 67.2646H31.7419C32.139 67.2646 32.4409 67.1736 32.6477 66.9916C32.8545 66.8014 32.9579 66.5367 32.9579 66.1975V66.0486C32.9579 65.7591 32.8545 65.5109 32.6477 65.3041C32.4409 65.089 32.139 64.9814 31.7419 64.9814H30.1784V67.2646ZM38.012 63.418H44.266V64.9814H41.958V72.104H40.32V64.9814H38.012V63.418ZM47.9427 63.418H53.75V64.9814H51.6653V70.5405H53.75V72.104H47.9427V70.5405H50.0274V64.9814H47.9427V63.418ZM57.8486 63.418H63.4077V64.9814H59.4865V66.9668H63.3332V68.5303H59.4865V72.104H57.8486V63.418ZM67.3574 63.418H73.1646V64.9814H71.08V70.5405H73.1646V72.104H67.3574V70.5405H69.442V64.9814H67.3574V63.418ZM79.9932 70.7887C80.3075 70.7887 80.564 70.7432 80.7625 70.6522C80.9693 70.5529 81.1265 70.4247 81.234 70.2675C81.3498 70.1021 81.4284 69.9159 81.4698 69.7091C81.5112 69.4941 81.5318 69.2748 81.5318 69.0515V68.8281H83.1698V69.0515C83.1698 70.0855 82.8968 70.8838 82.3508 71.4463C81.8131 72.0006 81.0272 72.2777 79.9932 72.2777C79.0005 72.2777 78.2146 71.9758 77.6355 71.3719C77.0565 70.768 76.7669 69.887 76.7669 68.7289V66.7931C76.7669 66.2389 76.8414 65.7425 76.9903 65.3041C77.1392 64.8574 77.3543 64.4851 77.6355 64.1873C77.9168 63.8812 78.256 63.6496 78.653 63.4924C79.0501 63.327 79.4968 63.2442 79.9932 63.2442C80.5061 63.2442 80.961 63.3187 81.3581 63.4676C81.7552 63.6165 82.0861 63.8316 82.3508 64.1128C82.6238 64.3941 82.8265 64.7333 82.9588 65.1303C83.0995 65.5274 83.1698 65.9741 83.1698 66.4705V66.6938H81.5318V66.4705C81.5318 66.2637 81.507 66.0569 81.4574 65.85C81.4077 65.6432 81.325 65.4571 81.2092 65.2917C81.0934 65.1262 80.9362 64.9939 80.7377 64.8946C80.5391 64.787 80.291 64.7333 79.9932 64.7333C79.7202 64.7333 79.4844 64.787 79.2859 64.8946C79.0873 64.9939 78.9219 65.1345 78.7895 65.3165C78.6572 65.4902 78.5579 65.697 78.4917 65.9369C78.4338 66.1685 78.4049 66.4126 78.4049 66.669V68.8529C78.4049 69.1342 78.4338 69.3948 78.4917 69.6347C78.5496 69.8663 78.6406 70.069 78.7647 70.2427C78.8888 70.4164 79.0501 70.5529 79.2486 70.6522C79.4555 70.7432 79.7036 70.7887 79.9932 70.7887ZM86.7721 63.418H92.5793V64.9814H90.4947V70.5405H92.5793V72.104H86.7721V70.5405H88.8567V64.9814H86.7721V63.418ZM100.86 70.2427H97.9064L97.4845 72.104H95.7721L97.8443 63.418H100.922L102.994 72.104H101.282L100.86 70.2427ZM98.2538 68.6792H100.5L99.4947 64.2369H99.2713L98.2538 68.6792ZM106.311 63.418H107.949V70.5405H111.895V72.104H106.311V63.418ZM125.601 63.418H131.409V64.9814H129.324V70.5405H131.409V72.104H125.601V70.5405H127.686V64.9814H125.601V63.418ZM139.391 71.285H139.615V63.418H141.252V72.104H138.051L137.034 64.2369H136.81V72.104H135.172V63.418H138.374L139.391 71.285ZM144.793 63.418H151.047V64.9814H148.739V72.104H147.101V64.9814H144.793V63.418ZM154.847 63.418H160.332V64.9814H156.485V66.9668H160.183V68.5303H156.485V70.5405H160.481V72.104H154.847V63.418ZM164.555 63.418H166.193V70.5405H170.139V72.104H164.555V63.418ZM174.138 63.418H179.945V64.9814H177.861V70.5405H179.945V72.104H174.138V70.5405H176.223V64.9814H174.138V63.418ZM186.178 67.7113H189.901V72.104H188.412V71.1361H188.188C188.089 71.4588 187.899 71.7317 187.618 71.9551C187.336 72.1702 186.914 72.2777 186.352 72.2777C185.955 72.2777 185.583 72.2033 185.235 72.0544C184.888 71.9055 184.586 71.6862 184.329 71.3967C184.073 71.0989 183.87 70.7349 183.721 70.3048C183.572 69.8663 183.498 69.3576 183.498 68.7785V66.7435C183.498 66.1809 183.577 65.6846 183.734 65.2544C183.899 64.816 184.123 64.4479 184.404 64.1501C184.693 63.8523 185.037 63.6289 185.434 63.48C185.831 63.3228 186.269 63.2442 186.749 63.2442C187.245 63.2442 187.688 63.327 188.077 63.4924C188.466 63.6496 188.796 63.8729 189.069 64.1625C189.342 64.4437 189.549 64.7788 189.69 65.1676C189.831 65.5481 189.901 65.9576 189.901 66.396V66.5449H188.263V66.396C188.263 65.8749 188.126 65.4819 187.853 65.2172C187.589 64.9442 187.212 64.8077 186.724 64.8077C186.261 64.8077 185.88 64.9649 185.583 65.2793C185.285 65.5853 185.136 66.1148 185.136 66.8676V68.704C185.136 70.0442 185.682 70.7142 186.774 70.7142C187.262 70.7142 187.63 70.586 187.878 70.3296C188.135 70.0649 188.263 69.7133 188.263 69.2748H186.178V67.7113ZM193.677 63.418H199.161V64.9814H195.315V66.9668H199.013V68.5303H195.315V70.5405H199.31V72.104H193.677V63.418ZM207.343 71.285H207.566V63.418H209.204V72.104H206.002L204.985 64.2369H204.762V72.104H203.124V63.418H206.325L207.343 71.285ZM215.896 70.7887C216.21 70.7887 216.467 70.7432 216.665 70.6522C216.872 70.5529 217.029 70.4247 217.137 70.2675C217.253 70.1021 217.331 69.9159 217.372 69.7091C217.414 69.4941 217.435 69.2748 217.435 69.0515V68.8281H219.072V69.0515C219.072 70.0855 218.799 70.8838 218.254 71.4463C217.716 72.0006 216.93 72.2777 215.896 72.2777C214.903 72.2777 214.117 71.9758 213.538 71.3719C212.959 70.768 212.67 69.887 212.67 68.7289V66.7931C212.67 66.2389 212.744 65.7425 212.893 65.3041C213.042 64.8574 213.257 64.4851 213.538 64.1873C213.819 63.8812 214.159 63.6496 214.556 63.4924C214.953 63.327 215.4 63.2442 215.896 63.2442C216.409 63.2442 216.864 63.3187 217.261 63.4676C217.658 63.6165 217.989 63.8316 218.254 64.1128C218.526 64.3941 218.729 64.7333 218.862 65.1303C219.002 65.5274 219.072 65.9741 219.072 66.4705V66.6938H217.435V66.4705C217.435 66.2637 217.41 66.0569 217.36 65.85C217.31 65.6432 217.228 65.4571 217.112 65.2917C216.996 65.1262 216.839 64.9939 216.64 64.8946C216.442 64.787 216.194 64.7333 215.896 64.7333C215.623 64.7333 215.387 64.787 215.189 64.8946C214.99 64.9939 214.825 65.1345 214.692 65.3165C214.56 65.4902 214.461 65.697 214.394 65.9369C214.337 66.1685 214.308 66.4126 214.308 66.669V68.8529C214.308 69.1342 214.337 69.3948 214.394 69.6347C214.452 69.8663 214.543 70.069 214.667 70.2427C214.791 70.4164 214.953 70.5529 215.151 70.6522C215.358 70.7432 215.606 70.7887 215.896 70.7887ZM222.799 63.418H228.283V64.9814H224.437V66.9668H228.135V68.5303H224.437V70.5405H228.432V72.104H222.799V63.418Z" fill="#676767"/>
<path fill-rule="evenodd" clip-rule="evenodd" d="M203.548 50.1695C206.013 51.3229 208.857 51.8996 212.079 51.8996C215.3 51.8996 218.084 51.3627 220.43 50.2889C222.817 49.1753 224.646 47.664 225.919 45.7549C227.231 43.8061 227.888 41.5591 227.888 39.0137C227.888 36.4683 227.271 34.3803 226.038 32.7497C224.805 31.1191 223.075 29.8066 220.848 28.8124C218.661 27.8181 216.076 27.0028 213.093 26.3664L211.721 26.0681C210.05 25.7102 208.678 25.2926 207.604 24.8154C206.53 24.3381 205.715 23.7415 205.158 23.0256C204.641 22.3098 204.383 21.4348 204.383 20.4007C204.383 18.8497 204.94 17.6366 206.053 16.7617C207.207 15.8469 208.976 15.3896 211.363 15.3896C212.954 15.3896 214.326 15.6282 215.479 16.1054C216.632 16.5429 217.507 17.2588 218.104 18.2531C218.74 19.2076 219.058 20.4803 219.058 22.0711V23.8608H226.814V22.0711C226.814 19.0485 226.138 16.5429 224.785 14.5544C223.473 12.526 221.644 11.0147 219.297 10.0204C216.99 8.98639 214.346 8.46936 211.363 8.46936C208.38 8.46936 205.775 8.9665 203.548 9.96079C201.36 10.9153 199.65 12.3073 198.417 14.1368C197.224 15.9265 196.627 18.094 196.627 20.6394C196.627 23.1847 197.164 25.2528 198.238 26.8437C199.352 28.4345 200.923 29.7271 202.951 30.7214C205.019 31.6759 207.485 32.4713 210.348 33.1077L211.721 33.4059C213.51 33.8037 215.022 34.2411 216.255 34.7184C217.527 35.1559 218.482 35.7326 219.118 36.4485C219.794 37.1643 220.132 38.099 220.132 39.2523C220.132 40.9227 219.456 42.2948 218.104 43.3687C216.791 44.4425 214.783 44.9794 212.079 44.9794C209.414 44.9794 207.306 44.3629 205.755 43.13C204.204 41.8573 203.428 39.9682 203.428 37.4626V35.7922H195.673V37.4626C195.673 40.4852 196.369 43.0704 197.761 45.218C199.153 47.3657 201.082 49.0162 203.548 50.1695ZM18.1797 9.30456V51.0644H26.0544V33.7042H41.5209V26.5454H26.0544V9.30456H18.1797ZM49.6017 9.30456V16.4634H68.7687V9.30456H49.6017ZM49.6017 26.4261V33.5849H68.7687V26.4261H49.6017ZM49.6017 43.9056V51.0644H68.7687V43.9056H49.6017ZM74.2483 51.0644V9.30456H92.3839C95.0089 9.30456 97.2957 9.76193 99.2445 10.6767C101.193 11.5914 102.705 12.884 103.778 14.5544C104.852 16.2248 105.389 18.1934 105.389 20.4604V21.1763C105.389 23.6819 104.793 25.7102 103.599 27.2613C102.406 28.8124 100.935 29.9458 99.1848 30.6617V31.7356C100.776 31.8151 102.009 32.3719 102.884 33.4059C103.759 34.4002 104.196 35.7326 104.196 37.403V51.0644H96.3213V38.5364C96.3213 37.5819 96.0628 36.8064 95.5458 36.2098C95.0685 35.6133 94.2532 35.315 93.0998 35.315H82.123V51.0644H74.2483ZM82.123 28.1561H91.5488C93.418 28.1561 94.8697 27.659 95.9037 26.6647C96.9775 25.6307 97.5145 24.2784 97.5145 22.608V22.0115C97.5145 20.3411 96.9974 19.0087 95.9634 18.0145C94.9293 16.9804 93.4578 16.4634 91.5488 16.4634H82.123V28.1561ZM111.942 9.30456V51.0644H119.578V15.0913H120.652L127.81 51.0644H140.816L147.974 15.0913H149.048V51.0644H156.684V9.30456H142.068L134.85 45.6953H133.776L126.558 9.30456H111.942ZM164.549 51.0644V9.30456H191.395V16.4634H172.424V26.4261H189.724V33.5849H172.424V43.9056H191.753V51.0644H164.549Z" fill="#676767"/>
</svg>
