<svg width="280" height="83" viewBox="0 0 280 83" fill="none" xmlns="http://www.w3.org/2000/svg">
<rect x="0.943182" y="0.943182" width="277.295" height="81.1136" rx="4.71591" stroke="#343434" stroke-width="1.88636"/>
<path d="M142.763 30.9933L142.763 15.0911L167.185 15.0911L167.185 16.2269C158.666 16.2269 143.899 22.4742 143.899 30.9933L142.763 30.9933Z" fill="#676767"/>
<path d="M191.606 52.0069L191.606 67.9091L167.185 67.9091L167.185 66.7732C175.704 66.7732 190.47 60.5259 190.47 52.0069L191.606 52.0069Z" fill="#676767"/>
<path d="M167.185 67.9091L143.332 67.9091L143.332 66.7732C151.099 66.7732 175.704 16.2269 167.185 16.2269L167.185 15.0911L191.606 15.0911L191.606 16.2269C183.087 16.2269 158.753 66.6792 167.185 66.7732L167.185 67.9091Z" fill="#676767"/>
<path d="M57.4224 15.0909V16.2268C57.4224 16.2268 52.311 16.2268 52.311 20.9516V67.909H35.8409L35.8408 66.7731C35.8408 66.7731 42.2018 66.7731 42.2018 61.9457V20.9516C42.2018 16.2268 35.8409 16.2268 35.8409 16.2268V15.0909H57.4224ZM79.5719 52.0068V67.909H63.1018V66.7731C69.917 66.7731 77.8681 61.0938 78.436 52.0068H79.5719Z" fill="#676767"/>
<path d="M95.8337 52.5748L94.6978 52.5748C94.6978 52.5748 88.7344 66.7731 84.191 66.7731V67.909H100.661L100.661 66.7731C92.1422 66.7731 95.8337 52.5748 95.8337 52.5748Z" fill="#676767"/>
<path d="M117.131 67.909H138.145V66.7731C134.453 66.7731 133.528 63.65 132.124 60.469C132.032 60.2371 122.242 35.2709 117.202 22.4741C116.07 19.6013 114.007 16.2268 120.539 16.2268V15.0909H99.5249V16.7948C104.636 16.7948 105.696 20.8985 106.34 22.4741C111.317 35.1208 116.252 48.0572 121.39 60.6394C124.23 66.7731 117.131 66.7731 117.131 66.7731V67.909Z" fill="#676767"/>
<path d="M232.004 30.4253H230.868C230.868 30.4253 235.403 16.2269 228.597 16.2269L228.597 15.0911H245.067V16.2269C236.548 16.2269 232.004 30.4253 232.004 30.4253Z" fill="#676767"/>
<path d="M220.646 15.091C220.646 15.091 220.646 15.6797 220.646 16.2269C212.127 16.2269 215.232 22.4007 216.102 24.178C216.102 24.178 224.167 44.6237 224.167 48.5992V61.9457C224.167 64.7854 226.981 66.7732 230.301 66.7732V67.9091H207.583V66.7732C213.944 66.7732 213.944 64.9041 213.944 61.9457V48.5992C213.944 45.1916 206.197 16.2269 196.225 16.2269L196.225 15.091H220.646Z" fill="#676767"/>
</svg>
