<svg width="191" height="83" viewBox="0 0 191 83" fill="none" xmlns="http://www.w3.org/2000/svg">
<rect x="0.943182" y="0.943182" width="188.636" height="81.1136" rx="4.71591" stroke="#343434" stroke-width="1.88636"/>
<path d="M19.3595 64.9403L14.7181 29.625H21.3271L24.7577 60.2988H25.6658L30.1055 29.625H41.6082L46.0478 60.2988H46.9559L50.3866 29.625H56.9956L52.3541 64.9403H40.8514L36.3109 33.5601H35.4028L30.8622 64.9403H19.3595ZM58.5032 64.9403L67.786 29.625H79.3896L88.6725 64.9403H81.8113L79.8941 57.1709H67.2815L65.3644 64.9403H58.5032ZM68.8455 51.016H78.3302L74.0419 33.8124H73.1338L68.8455 51.016ZM97.1427 64.9403L88.1625 29.625H95.0238L102.49 60.652H103.197L110.663 29.625H117.525L108.544 64.9403H97.1427ZM121.771 64.9403V29.625H144.473V35.679H128.43V44.1042H143.061V50.1583H128.43V58.8862H144.776V64.9403H121.771ZM161.965 65.6466C159.241 65.6466 156.836 65.1589 154.751 64.1835C152.665 63.2081 151.034 61.8124 149.857 59.9961C148.68 58.1799 148.091 55.9937 148.091 53.4376V52.025H154.65V53.4376C154.65 55.5565 155.306 57.1541 156.617 58.2304C157.929 59.273 159.712 59.7943 161.965 59.7943C164.252 59.7943 165.951 59.3403 167.061 58.4322C168.204 57.5241 168.776 56.3637 168.776 54.9511C168.776 53.9757 168.49 53.1853 167.918 52.5799C167.38 51.9745 166.573 51.4868 165.497 51.1169C164.454 50.7133 163.176 50.3433 161.662 50.007L160.502 49.7547C158.08 49.2166 155.995 48.5439 154.246 47.7367C152.531 46.8958 151.202 45.8027 150.261 44.4574C149.353 43.1121 148.898 41.3631 148.898 39.2106C148.898 37.058 149.403 35.225 150.412 33.7115C151.455 32.1643 152.901 30.9871 154.751 30.1799C156.634 29.3391 158.837 28.9187 161.36 28.9187C163.882 28.9187 166.119 29.3559 168.07 30.2304C170.054 31.0712 171.601 32.3493 172.711 34.0646C173.855 35.7463 174.426 37.8652 174.426 40.4214V41.9349H167.868V40.4214C167.868 39.076 167.599 37.9997 167.061 37.1925C166.556 36.3517 165.816 35.7463 164.841 35.3763C163.865 34.9727 162.705 34.7709 161.36 34.7709C159.342 34.7709 157.845 35.1577 156.87 35.9313C155.928 36.6712 155.457 37.697 155.457 39.0088C155.457 39.8832 155.676 40.6232 156.113 41.2286C156.584 41.834 157.273 42.3385 158.181 42.7421C159.089 43.1457 160.25 43.4988 161.662 43.8015L162.823 44.0538C165.345 44.5919 167.532 45.2814 169.381 46.1223C171.265 46.9631 172.728 48.073 173.771 49.452C174.813 50.831 175.335 52.5967 175.335 54.7493C175.335 56.9018 174.78 58.8021 173.67 60.4502C172.593 62.0646 171.046 63.3427 169.028 64.2844C167.044 65.1925 164.689 65.6466 161.965 65.6466Z" fill="#676767"/>
<path d="M14.6623 25.7727V10.3121H20.0735L22.746 23.7849H23.1436L25.816 10.3121H31.2272V25.7727H28.4002V12.4545H28.0026L25.3522 25.7727H20.5373L17.8869 12.4545H17.4894V25.7727H14.6623ZM34.1391 25.7727V10.3121H37.0545V25.7727H34.1391ZM39.5209 25.7727V23.2107H41.5529V12.8742H39.5209V10.3121H45.8819C47.958 10.3121 49.5335 10.8422 50.6084 11.9024C51.698 12.9478 52.2428 14.5086 52.2428 16.5847V19.5001C52.2428 21.5763 51.698 23.1444 50.6084 24.2046C49.5335 25.25 47.958 25.7727 45.8819 25.7727H39.5209ZM44.4683 23.1223H45.926C47.104 23.1223 47.9654 22.8131 48.5102 22.1947C49.055 21.5763 49.3274 20.7075 49.3274 19.5885V16.4964C49.3274 15.3626 49.055 14.4938 48.5102 13.8901C47.9654 13.2717 47.104 12.9625 45.926 12.9625H44.4683V23.1223Z" fill="#676767"/>
</svg>
