<svg width="185" height="83" viewBox="0 0 185 83" fill="none" xmlns="http://www.w3.org/2000/svg">
<mask id="mask0_53_1165" style="mask-type:alpha" maskUnits="userSpaceOnUse" x="25" y="23" width="39" height="38">
<path fill-rule="evenodd" clip-rule="evenodd" d="M25.3608 26.3981C25.3608 24.5521 26.8574 23.0555 28.7034 23.0555H60.0969C61.943 23.0555 63.4395 24.5521 63.4395 26.3981V57.3684C63.4395 59.2144 61.943 60.711 60.0969 60.711H28.7034C26.8574 60.711 25.3608 59.2144 25.3608 57.3684V26.3981Z" fill="white"/>
</mask>
<g mask="url(#mask0_53_1165)">
<path fill-rule="evenodd" clip-rule="evenodd" d="M26.2085 54.113L27.6821 42.2314L89.6243 149.779L83.3781 153.394L26.2085 54.113Z" fill="#FA5252"/>
<path fill-rule="evenodd" clip-rule="evenodd" d="M27.4492 42.3748L33.6953 38.7599L95.6373 146.307L89.3916 149.922L27.4492 42.3748Z" fill="#BE4BDB"/>
<path fill-rule="evenodd" clip-rule="evenodd" d="M33.4619 38.9032L39.708 35.2883L101.65 142.836L95.4041 146.451L33.4619 38.9032Z" fill="#F5E44C"/>
<path fill-rule="evenodd" clip-rule="evenodd" d="M39.4746 35.4317L45.7206 31.8168L107.663 139.364L101.417 142.979L39.4746 35.4317Z" fill="#40C057"/>
<path fill-rule="evenodd" clip-rule="evenodd" d="M45.4878 31.9602L51.7338 28.3453L113.676 135.893L107.43 139.507L45.4878 31.9602Z" fill="#FAB005"/>
<path fill-rule="evenodd" clip-rule="evenodd" d="M51.5005 28.4885L57.7465 24.8736L119.689 132.421L113.443 136.036L51.5005 28.4885Z" fill="#FD7E14"/>
<path fill-rule="evenodd" clip-rule="evenodd" d="M30.6286 23.6033H52.0848C55.4787 23.6033 58.7184 25.2159 58.7184 28.6021V50.4938C58.7184 53.8795 55.9675 56.6242 52.5731 56.6242H30.6286C27.4331 56.6242 26.0379 54.6333 25.7419 51.5224C25.4459 48.4116 24.4834 50.6917 24.4834 50.4938L25.7419 29.7054C25.7419 26.3197 27.2343 23.6033 30.6286 23.6033Z" fill="#676767"/>
<path fill-rule="evenodd" clip-rule="evenodd" d="M53.4506 23.0554H31.5061C28.1118 23.0554 25.3608 25.8001 25.3608 29.1859V51.0776C25.3608 54.4638 28.1122 57.208 31.5061 57.208H53.4506C56.8449 57.208 59.5958 54.4633 59.5958 51.0776V29.1859C59.5958 25.7997 56.8445 23.0554 53.4506 23.0554ZM31.5061 55.4566C29.0816 55.4566 27.1165 53.4963 27.1165 51.0776V29.1859C27.1165 26.7672 29.0815 24.8068 31.5061 24.8068H53.4506C55.8751 24.8068 57.8402 26.7672 57.8402 29.1859V51.0776C57.8402 53.4962 55.8752 55.4566 53.4506 55.4566H31.5061Z" fill="#27394B"/>
<path fill-rule="evenodd" clip-rule="evenodd" d="M33.4472 30.9404L30.7314 32.0766L40.6748 51.4347L43.5439 50.5826L33.4472 30.9404ZM48.3309 38.5657C49.2289 38.5657 49.8202 39.0682 49.8202 40.838V47.2834H52.9302V39.7237C52.9302 37.0363 51.7475 35.922 49.864 35.922C48.3747 35.922 47.3015 36.5993 46.4692 37.3859L46.316 36.1623L43.4249 36.3153C43.5782 38.7842 43.622 42.1708 43.622 47.2834H46.732C46.732 44.0061 46.6883 41.1876 46.6445 39.0901C47.1482 38.7623 47.6957 38.5657 48.3309 38.5657Z" fill="#27394B"/>
</g>
<path d="M79.9602 39.195C80.9673 39.195 81.6305 39.7599 81.6305 41.7496V48.996H85.1186V40.4968C85.1186 37.4755 83.7919 36.2227 81.6794 36.2227C80.0092 36.2227 78.8055 36.9842 77.872 37.8685L77.7001 36.4929L74.4575 36.6649C74.6295 39.4406 74.6788 43.248 74.6788 48.996H78.167C78.167 45.3114 78.1176 42.1426 78.0687 39.7845C78.6335 39.4161 79.2477 39.195 79.9602 39.195ZM96.9428 49.2907L97.2621 46.4167C92.3003 46.3431 90.4582 45.7781 90.0649 43.7147L97.557 43.5182C97.9993 38.9739 96.3533 36.2227 92.7915 36.2227C89.4754 36.2227 86.5525 39.1704 86.5525 43.0515C86.5525 47.1045 88.6402 49.5118 96.9428 49.2907ZM92.1531 39.0476C93.553 39.0476 94.1178 39.9564 94.1915 41.5777C92.9145 41.6022 91.1213 41.6759 89.9912 41.7005C90.1142 39.7354 90.8263 39.0476 92.1531 39.0476ZM105.943 48.996H109.013C109.381 46.5641 109.995 41.332 110.192 36.5666H106.95C106.95 39.6126 106.925 41.725 106.9 45.0658H106.802C106.409 43.6656 105.795 41.7742 105.427 40.5951H103.486C103.142 41.7496 102.553 43.5919 102.159 44.9921H102.061C102.012 41.6514 101.963 39.588 101.938 36.5666H98.5976C98.7696 41.332 99.3348 46.5641 99.7277 48.996H102.725L104.272 43.6165L105.943 48.996ZM121.918 48.996L122.213 46.3922H118.553V31.7767H111.749L111.454 34.2822L115.04 34.4787V46.3922H111.405V48.996H121.918ZM131.286 34.8471L131.507 31.2854H127.847L127.626 34.8471H131.286ZM135.02 48.996L135.315 46.3922H131.311V36.5666H123.966L123.696 39.0476L127.798 39.2441V46.3922H123.794V48.996H135.02ZM141.416 39.195C142.423 39.195 143.086 39.7599 143.086 41.7496V48.996H146.574V40.4968C146.574 37.4755 145.248 36.2227 143.135 36.2227C141.465 36.2227 140.261 36.9842 139.328 37.8685L139.156 36.4929L135.913 36.6649C136.085 39.4406 136.134 43.248 136.134 48.996H139.622C139.622 45.3114 139.573 42.1426 139.524 39.7845C140.089 39.4161 140.703 39.195 141.416 39.195ZM158.398 49.2907L158.718 46.4167C153.756 46.3431 151.914 45.7781 151.521 43.7147L159.012 43.5182C159.455 38.9739 157.809 36.2227 154.247 36.2227C150.931 36.2227 148.008 39.1704 148.008 43.0515C148.008 47.1045 150.096 49.5118 158.398 49.2907ZM153.608 39.0476C155.008 39.0476 155.574 39.9564 155.647 41.5777C154.37 41.6022 152.577 41.6759 151.447 41.7005C151.57 39.7354 152.282 39.0476 153.608 39.0476Z" fill="#676767"/>
<rect x="1.15278" y="1.15278" width="182.139" height="80.6944" rx="5.76389" stroke="#343434" stroke-width="2.30556"/>
<g style="mix-blend-mode:color">
<rect x="20.75" y="20.75" width="142.944" height="41.5" fill="black"/>
</g>
</svg>
