<svg width="131" height="153" viewBox="0 0 131 153" fill="none" xmlns="http://www.w3.org/2000/svg">
<path fill-rule="evenodd" clip-rule="evenodd" d="M26.4694 10.426L26.3947 10.4359L26.3451 10.4926L11.9774 26.9242L10.2925 28.8511L10.2381 28.9134L10.2435 28.9959L14.1099 87.3801L14.1232 87.5812L14.3241 87.5664L17.0699 87.364L13.7002 93.0045L13.6608 93.0703L13.6756 93.1456L15.3391 101.607L0.721009 140.506L0.705078 140.548L0.708962 140.593L1.28435 147.277L1.30079 147.468L1.49224 147.46L4.12923 147.346L11.8198 152.679L11.8806 152.721L11.9542 152.714L96.0999 144.056L96.185 144.047L96.2374 143.98L101.851 136.747L103.091 136.415L103.182 136.39L103.221 136.305L130.449 76.7233L130.475 76.6653L130.463 76.6026C129.902 73.6696 128.87 68.9117 127.578 64.3214C126.932 62.0262 126.22 59.7705 125.469 57.8044C124.719 55.8414 123.925 54.1553 123.111 53.0073L123.047 52.9156L122.934 52.9234L118.749 53.2132L120.222 50.4672L120.268 50.3815L120.229 50.2925L98.6583 0.983321L98.598 0.845398L98.4487 0.865219L26.4694 10.426ZM17.6107 87.2388L17.6782 87.1258L106.745 75.4175L106.851 75.4036L106.899 75.308L108.667 71.7352L108.669 71.7317L118.525 53.6297L122.617 53.3463L109.321 80.6184L14.2548 92.8561L17.6107 87.2388ZM118.226 53.3432L108.511 71.1843L85.4996 17.1442L98.4224 1.44217L119.824 50.3638L118.226 53.3421L118.226 53.3432ZM108.269 71.6367L85.2181 17.5041L83.9979 19.0918L106.737 74.7332L108.269 71.6367ZM84.8132 17.3746L83.6609 18.8739L10.9446 28.713L12.2292 27.2439L84.8132 17.3746ZM83.6428 19.28L10.655 29.1559L14.4949 87.1408L106.436 75.0548L83.6428 19.28ZM85.1634 16.9233L12.6298 26.7857L26.5967 10.8126L97.9978 1.32863L85.1634 16.9233ZM109.67 80.816L122.977 53.5203C123.696 54.6162 124.41 56.1529 125.095 57.9472C125.841 59.8981 126.549 62.1414 127.193 64.4298C128.472 68.9738 129.496 73.6853 130.058 76.6151L103.108 135.589L101.617 128.619L112.618 89.4449L112.635 89.3846L112.614 89.3255L109.67 80.816ZM101.254 128.832L102.797 136.047L1.66534 147.039L1.12409 140.752L101.254 128.832ZM11.9869 152.308L4.52118 147.131L101.463 136.594L95.9739 143.667L11.9869 152.308ZM101.255 128.429L1.21112 140.338L15.6911 101.808L112.151 89.627L101.255 128.429ZM112.156 89.2233L15.7066 101.403L14.1093 93.2781L109.318 81.0221L112.156 89.2233ZM79.0266 22.6512C77.8218 22.8078 36.7397 28.4458 16.3416 31.2463C16.0909 31.2594 15.7651 31.4 15.5212 31.7431C15.2735 32.0915 15.1201 32.633 15.1842 33.4363C15.3074 34.9806 17.6559 66.6176 18.8149 82.2458C18.8302 82.5064 18.97 82.8552 19.3208 83.1032C19.6743 83.3529 20.2166 83.4832 21.0075 83.3581C22.517 83.1193 73.8598 76.7749 99.3494 73.6318L99.3582 73.6307L99.3669 73.6289C99.6424 73.5696 100.024 73.3958 100.24 73.046C100.466 72.6776 100.472 72.1746 100.103 71.5422C100.068 71.4816 99.9861 71.3039 99.8572 71.0027C99.7308 70.7074 99.5644 70.3057 99.3619 69.8083C98.9571 68.8138 98.4095 67.4396 97.753 65.7748C96.4401 62.4453 94.6923 57.9555 92.7813 53.0196C88.9594 43.1481 84.4848 31.4938 81.5305 23.7734L81.5226 23.753L81.5106 23.7347C81.2216 23.297 80.3304 22.4817 79.0266 22.6512ZM15.5829 33.4045C15.5237 32.6627 15.6701 32.224 15.8472 31.9749C16.0246 31.7253 16.2428 31.6503 16.3675 31.6455L16.3773 31.6451L16.3871 31.6438C36.7838 28.8435 77.8751 23.2042 79.0782 23.0479C80.1646 22.9067 80.9171 23.5767 81.165 23.9377C84.1196 31.6585 88.5896 43.3009 92.4083 53.1641C94.3194 58.1001 96.0675 62.5909 97.3809 65.9215C98.0375 67.5868 98.5858 68.9625 98.9914 69.9591C99.1942 70.4574 99.3617 70.8615 99.4895 71.1601C99.6147 71.4528 99.7072 71.6569 99.7578 71.7438C100.077 72.2915 100.025 72.631 99.8988 72.8365C99.7628 73.0576 99.503 73.1885 99.2912 73.236C73.8068 76.3784 22.4633 82.7228 20.945 82.963C20.2219 83.0774 19.7948 82.9483 19.5517 82.7765C19.3068 82.6035 19.2225 82.3696 19.2142 82.2214L19.214 82.2178C18.0551 66.5916 15.7063 34.9504 15.5829 33.4045ZM13.3912 120.682L13.2698 120.696L13.2275 120.811L11.1605 126.408L9.90034 126.539L9.78084 126.551L9.73563 126.663L7.10393 133.143L6.97063 133.471L7.32053 133.416L18.3373 131.67L17.565 133.989L17.4656 134.287L17.778 134.25L58.4712 129.479L58.5912 129.465L58.6346 129.353L59.7204 126.528L78.3009 124.419L78.4317 124.404L78.4698 124.278L79.2159 121.807L79.8737 121.842L80.0252 121.85L80.0737 121.706L81.324 118.011L81.4047 117.772L81.1543 117.747L80.6173 117.694L81.2469 115.583L84.2973 115.493L84.443 115.488L84.4835 115.348L85.3651 112.302L85.4491 112.012L85.1491 112.048L13.3912 120.682ZM11.4926 126.664L13.5604 121.064L84.8969 112.481L84.1398 115.097L81.0906 115.188L80.9462 115.192L80.9049 115.331L80.1647 117.812L80.0954 118.045L80.3367 118.069L80.8645 118.121L79.7434 121.435L79.0804 121.4L78.9237 121.391L78.8784 121.541L78.1249 124.036L59.5547 126.144L59.4341 126.158L59.3906 126.271L58.3046 129.096L18.0439 133.816L18.8208 131.484L18.9248 131.172L18.5998 131.224L7.60783 132.965L10.061 126.924L11.3255 126.794L11.4494 126.781L11.4926 126.664ZM86.7688 111.877L86.6429 111.895L86.6062 112.017L83.1184 123.59L83.0293 123.886L83.3354 123.846L97.8899 121.973L98.0185 121.956L98.0559 121.832L101.616 109.999L101.706 109.698L101.395 109.743L86.7688 111.877ZM83.5904 123.41L86.9525 112.254L101.142 110.184L97.7102 121.593L83.5904 123.41ZM73.7368 35.4698L61.6258 37.1476L66.8005 66.8063L78.9115 65.1286L73.7368 35.4698ZM38.6956 40.3241L26.5846 42.0019L31.7593 71.6607L43.8703 69.9829L38.6956 40.3241ZM59.8736 37.3903L61.6957 47.8335L54.2738 48.8617L55.9196 58.2949L63.3416 57.2668L65.0483 67.0491L45.5179 69.7547L40.3432 40.0959L59.8736 37.3903Z" fill="#EA5656"/>
</svg>
