<svg width="173" height="83" viewBox="0 0 173 83" fill="none" xmlns="http://www.w3.org/2000/svg">
<rect x="0.83832" y="0.83832" width="171.017" height="80.4787" rx="4.1916" stroke="#343434" stroke-width="1.67664"/>
<path d="M66.462 34.7488C66.462 32.9075 66.3422 31.0661 65.9428 29.2648C65.7431 28.3441 65.9827 27.5435 66.5419 26.863C66.9813 26.3026 67.5005 25.9023 68.0997 25.5821C69.0583 25.0217 70.0569 24.6214 71.1353 24.3412C73.4121 23.7407 75.7288 23.5005 78.0454 23.7007C79.1638 23.7807 80.2822 23.9809 81.3207 24.4212C81.84 24.6214 82.2794 24.8615 82.7188 25.2218C83.5975 25.9423 83.8771 26.863 83.5575 27.9438C81.0811 35.7095 78.4449 43.3952 75.0897 50.8007C73.7716 53.7629 72.3336 56.645 70.6161 59.407C69.5776 61.0883 68.4592 62.6894 67.1411 64.1305C66.3821 64.9711 65.5433 65.7317 64.5847 66.3321C63.706 66.8925 62.7873 67.2928 61.7088 67.4129C59.9913 67.6131 58.4335 67.2128 57.1154 66.0919C56.4763 65.5716 55.9171 64.9311 55.4778 64.2506C54.9585 63.45 54.4792 62.6494 54.0398 61.8488C53.6004 61.0883 53.201 60.2877 52.7217 59.5671C52.3622 59.0067 51.9628 58.4863 51.5634 57.9259C51.2838 57.5657 50.9243 57.2454 50.4849 57.0052C49.6062 56.4849 48.6875 56.4448 47.7289 56.645C46.3708 56.9652 45.1725 57.5657 44.134 58.5264C43.6147 59.0067 43.1354 59.5271 42.6561 60.0075C42.1768 60.5278 41.6975 61.0482 41.2182 61.5286C40.1397 62.6494 38.8615 63.5701 37.3837 64.1305C36.5049 64.4507 35.6262 64.6109 34.7075 64.7309C34.1084 64.811 33.5092 64.851 32.9101 64.8911C30.9928 64.9711 29.3152 64.3306 27.9172 63.0497C26.9985 62.2091 26.2796 61.2484 25.6005 60.2476C24.4821 58.5664 23.5635 56.7651 22.6847 54.9237C21.1669 51.6413 19.8488 48.2388 18.6505 44.7962C16.6533 39.1521 14.8559 33.4679 13.0984 27.7437C12.8987 27.1432 12.739 26.5428 12.5792 25.9423C12.3395 25.1418 12.5392 24.5813 13.2183 24.101C13.7775 23.7007 14.4165 23.5005 15.0956 23.3404C16.1341 23.1002 17.2125 22.9802 18.2511 22.9802C21.5264 22.9001 24.7218 23.2604 27.8773 24.181C28.4764 24.3412 29.0356 24.6214 29.6348 24.8215C29.8744 24.9016 30.0741 25.0617 30.2738 25.1818C30.9129 25.542 31.1925 26.1025 31.2325 26.823C31.3124 27.7036 31.2724 28.5843 31.1925 29.4649C31.0328 31.1061 30.873 32.7474 30.7132 34.3886C30.5534 35.9097 30.3537 37.4308 30.2339 38.992C30.0342 41.6339 29.8345 44.2358 29.9942 46.8778C30.0741 48.1587 30.2339 49.4397 30.6333 50.6806C30.7931 51.201 31.0328 51.7213 31.3523 52.2017C31.9914 53.1624 32.8701 53.6428 34.0285 53.6428C35.8658 53.6428 37.4236 52.9623 38.7417 51.7213C39.3808 51.1209 39.94 50.4804 40.4193 49.7599C41.0584 48.7592 41.6575 47.7184 42.2966 46.6776C42.7759 45.9171 43.2153 45.1565 43.6946 44.3959C44.0541 43.8756 44.4535 43.3952 44.853 42.9549C46.0912 41.6339 47.649 41.2336 49.4064 41.6739C50.5648 41.9541 51.5634 42.5146 52.482 43.2751C53.4806 44.0757 54.3594 45.0364 55.1982 45.9571C55.9171 46.7577 56.6361 47.5182 57.3551 48.3188C57.8743 48.8392 58.4335 49.3196 59.0726 49.6798C59.6318 50.0001 60.191 50.2002 60.8301 50.2403C61.3493 50.2803 61.8287 50.1202 62.268 49.7999C62.7473 49.4797 63.1068 48.9993 63.4264 48.519C64.0255 47.5983 64.4249 46.6376 64.7844 45.5968C65.3436 43.9156 65.7031 42.1943 65.9428 40.433C66.3023 38.5516 66.4221 36.6302 66.462 34.7488Z" fill="#676767"/>
<path d="M103.529 28.184C105.047 28.184 106.524 28.3041 108.002 28.6243C108.641 28.7845 109.281 28.9446 109.84 29.2648C110.159 29.4249 110.479 29.6251 110.718 29.9053C111.038 30.2656 111.118 30.6258 110.998 31.1062C110.479 33.0276 110.119 34.989 109.92 36.9905C109.76 38.6317 109.68 40.313 109.84 41.9942C109.999 43.5554 110.279 45.1165 110.958 46.5175C112.116 48.9994 114.034 50.4004 116.71 50.8808C118.348 51.161 119.985 51.1209 121.583 50.6806C123.66 50.1202 125.258 48.9193 126.376 47.118C127.135 45.8771 127.614 44.476 127.894 43.035C128.333 40.8333 128.373 38.6317 128.253 36.4301C128.134 34.6288 127.894 32.8675 127.534 31.1062C127.455 30.6659 127.574 30.3056 127.854 29.9853C128.094 29.7051 128.413 29.465 128.733 29.3048C129.452 28.9046 130.211 28.7044 131.009 28.5443C133.007 28.184 135.044 28.104 137.081 28.3041C137.8 28.3842 138.519 28.5043 139.198 28.8245C139.517 28.9846 139.837 29.1447 140.116 29.4249C140.676 29.9453 140.716 30.7059 140.476 31.2663C135.763 42.3945 131.089 53.5227 126.376 64.6909C126.216 65.0512 125.977 65.3314 125.697 65.5716C124.978 66.2121 124.139 66.5723 123.261 66.8525C122.222 67.1728 121.144 67.3729 120.025 67.4129C118.587 67.493 117.149 67.493 115.711 67.2528C114.713 67.0927 113.714 66.8125 112.795 66.3321C112.436 66.132 112.077 65.9319 111.757 65.6917C111.358 65.4115 111.078 65.0112 110.878 64.5308C106.245 53.4827 101.611 42.4345 96.9781 31.3864C96.6586 30.5858 96.8184 29.9453 97.4574 29.4249C97.8968 29.0647 98.4161 28.8645 98.9753 28.7044C99.894 28.4642 100.813 28.3441 101.771 28.3041C102.45 28.184 102.97 28.184 103.529 28.184Z" fill="#676767"/>
<path d="M95.2606 55.4041C95.2207 55.324 95.1408 55.2039 95.1008 55.1239C94.1822 53.6828 92.864 52.8422 91.1864 52.522C90.5074 52.4019 89.8284 52.3619 89.1494 52.4819C88.1907 52.6821 87.4318 53.1624 86.7528 53.8029C86.1936 54.3633 85.7143 54.9638 85.2749 55.6443C84.516 56.8051 83.9169 58.046 83.2778 59.287C82.6786 60.4878 82.0795 61.6887 81.4803 62.8896C81.001 63.8103 80.4818 64.6509 79.8027 65.4515C79.5231 65.7717 79.2036 66.092 78.8841 66.3722C78.0053 67.0927 77.0067 67.493 75.8484 67.453C75.0096 67.413 74.1708 67.3729 73.332 67.0927C73.0924 67.0127 72.8527 66.9326 72.653 66.8125C71.255 66.0519 71.215 64.731 71.6145 63.7703C72.1737 62.4093 72.7728 61.0883 73.372 59.7673C76.5274 52.562 79.6829 45.3167 82.8384 38.1113C83.1979 37.2307 83.797 36.5502 84.516 35.9898C85.5146 35.2292 86.633 34.7889 87.8712 34.5887C89.5488 34.3085 91.2264 34.3486 92.864 34.8289C94.1023 35.1892 95.1807 35.7896 96.0994 36.7103C96.4988 37.1106 96.8184 37.591 97.058 38.1514C100.773 46.6376 104.487 55.1239 108.202 63.6101C108.362 64.0104 108.482 64.4508 108.482 64.8911C108.482 65.6517 108.162 66.2521 107.563 66.6924C107.004 67.0927 106.365 67.2929 105.686 67.3729C105.007 67.493 104.328 67.493 103.649 67.493C101.971 67.453 100.293 67.2929 98.6558 66.8525C96.5787 66.3322 94.6615 65.4915 92.9839 64.0905C91.6658 62.9697 90.6272 61.6487 90.0281 60.0075C89.7086 59.0868 89.5488 58.1261 89.7485 57.1254C89.8284 56.7651 89.9482 56.4048 90.108 56.0846C90.5873 55.2039 91.3462 54.8037 92.3048 54.7236C93.1037 54.6836 93.8227 54.8837 94.5017 55.2039C94.7414 55.324 94.981 55.4441 95.1807 55.5242C95.2207 55.4441 95.2207 55.4441 95.2606 55.4041Z" fill="#676767"/>
<path d="M148.105 39.5124C150.062 39.5524 152.019 39.7526 153.937 40.1929C155.654 40.5932 157.252 41.1936 158.77 42.0743C161.686 43.7955 163.523 46.3574 164.362 49.5998C164.761 51.161 164.961 52.7622 164.921 54.3633C164.921 55.4842 164.362 56.2047 163.323 56.565C162.884 56.7251 162.444 56.8051 161.965 56.7651C161.286 56.7651 160.567 56.7251 159.888 56.685C158.77 56.605 157.691 56.5249 156.573 56.4449C155.055 56.3648 153.537 56.2847 152.019 56.2047C150.422 56.1246 148.824 56.1246 147.226 56.2447C146.787 56.2847 146.347 56.3648 145.948 56.4849C145.429 56.645 145.309 56.9252 145.509 57.4456C145.668 57.8459 145.948 58.1661 146.268 58.4864C146.987 59.1669 147.865 59.6873 148.824 60.0075C150.981 60.728 153.058 60.5279 155.015 59.327C155.215 59.2069 155.414 59.0868 155.614 58.9667C156.054 58.7666 156.493 58.7265 156.932 58.8867C157.332 59.0068 157.731 59.2069 158.091 59.4871C159.049 60.1676 159.928 61.0082 160.687 61.9289C161.006 62.3292 161.286 62.8096 161.486 63.3299C161.686 63.8503 161.765 64.4107 161.606 64.9712C161.486 65.4115 161.246 65.7717 160.847 66.0119C159.489 66.9326 158.011 67.5731 156.453 68.0134C154.296 68.6138 152.099 68.854 149.862 68.6939C146.347 68.4537 143.072 67.3729 139.957 65.7717C139.477 65.5316 139.078 65.1713 138.678 64.811C136.561 63.0497 135.004 60.8881 134.205 58.2062C133.646 56.4048 133.486 54.5635 133.726 52.7221C134.325 47.9986 136.641 44.2759 140.636 41.674C142.473 40.4731 144.51 39.7926 146.707 39.5925C147.106 39.5124 147.626 39.5124 148.105 39.5124ZM145.189 51.201C145.309 51.201 145.349 51.201 145.429 51.201C148.345 51.201 151.26 51.201 154.176 51.201C154.336 51.201 154.536 51.161 154.696 51.1209C155.255 50.9608 155.494 50.5605 155.335 50.0001C155.215 49.6399 155.015 49.3196 154.735 49.0394C154.256 48.5591 153.737 48.1988 153.098 47.9586C151.66 47.3582 150.182 47.1981 148.664 47.5183C146.827 47.8786 145.668 48.9994 145.229 50.8007C145.189 50.9608 145.189 51.0809 145.189 51.201Z" fill="#676767"/>
<path d="M119.387 34.1884C120.066 34.4286 121.064 35.029 122.223 35.8697C123.141 34.5487 123.94 33.1076 124.539 31.6265C124.579 31.6265 124.579 31.6265 124.619 31.6666C124.619 31.7466 124.659 31.7866 124.659 31.8667C124.699 32.7874 124.659 33.7081 124.579 34.5887C124.539 34.8289 124.459 35.0691 124.38 35.3092C124.06 35.9897 123.741 36.6702 123.421 37.3908C123.221 37.8311 123.221 38.0313 123.581 38.3915C123.82 38.6717 124.14 38.8318 124.499 38.9519C124.859 39.072 125.258 39.112 125.618 39.2321C125.658 39.2321 125.698 39.2722 125.818 39.2722C125.698 39.3122 125.618 39.3522 125.538 39.3923C125.578 39.4323 125.618 39.4723 125.658 39.5524C125.618 39.5524 125.618 39.5924 125.618 39.5924C125.418 39.5123 125.258 39.4723 125.059 39.3923C124.739 39.2321 124.42 39.1921 124.1 39.2321C123.82 39.2722 123.501 39.3122 123.221 39.3122C122.982 39.3122 122.702 39.3522 122.462 39.3122C122.223 39.2722 122.023 39.1521 121.823 39.072C121.424 38.9119 121.064 38.7118 120.665 38.5516C120.505 38.4716 120.305 38.5116 120.146 38.5116C119.946 38.5516 119.746 38.5516 119.507 38.4716C119.347 38.4315 119.147 38.4315 118.987 38.3915C119.147 38.2314 119.267 38.0312 119.467 37.8711C119.546 37.7911 119.706 37.751 119.826 37.711C120.026 37.711 120.226 37.711 120.385 37.751C120.465 37.751 120.585 37.7911 120.665 37.7911C120.785 37.671 120.745 37.5109 120.705 37.3908C120.545 37.0305 120.345 36.7103 120.186 36.35C119.986 35.9897 119.786 35.6695 119.586 35.3092C119.467 35.1091 119.427 34.8689 119.387 34.6688C119.227 34.5087 119.227 34.3485 119.387 34.1884Z" fill="#676767"/>
<path d="M12.619 25.9423C12.619 25.9423 12.5391 21.0988 12.5391 19.4175C12.5391 17.6963 12.3793 16.2952 11.7802 16.2552C11.181 16.2152 10.1026 16.4153 10.0626 15.6147C10.0227 14.8141 10.4221 14.5339 13.0184 14.5339C15.6147 14.5339 16.9328 14.2938 16.8529 15.6948C16.8529 16.3353 15.7745 16.3353 15.2153 16.2952C14.6561 16.2552 14.4563 16.4954 14.4164 17.5762C14.3765 18.657 13.298 23.6607 15.375 23.3004C17.4521 22.9401 15.6946 25.0617 15.6946 25.0617L12.619 25.9423Z" fill="#676767"/>
<path d="M17.3726 23.0202C17.3726 23.0202 18.451 22.9401 18.451 21.4991C18.451 20.058 18.3312 16.2552 18.3312 16.2552C18.3312 16.2552 18.3711 14.4939 18.3711 14.3338C18.3711 14.1737 18.3711 13.4131 19.2499 13.4131C20.1286 13.4131 20.1686 14.1336 20.1286 14.3338C20.0887 14.5339 20.1286 17.336 20.1286 17.336C20.1286 17.336 21.247 16.4153 22.5651 16.9757C23.8832 17.5362 24.083 18.657 24.1229 20.1781C24.1628 21.6992 24.2028 23.2203 24.9218 23.5006C25.6807 23.7407 21.3269 23.0602 21.3269 23.0602C21.3269 23.0602 22.3255 22.9401 22.3654 22.1796C22.3654 21.419 22.2456 19.1774 22.2456 19.1774C22.2456 19.1774 22.4054 17.9765 21.2071 18.2567C20.0088 18.5369 20.2884 20.2181 20.2884 20.2181C20.2884 20.2181 20.2085 23.0202 21.3269 23.0202C22.4453 23.0202 17.9717 23.6206 17.9717 23.6206L17.3726 23.0202Z" fill="#676767"/>
<path d="M25.7599 23.6607C25.7599 23.6607 24.961 21.8593 25.3205 19.6977C25.68 17.5362 27.078 16.7356 28.3562 16.8557C29.6343 16.9757 31.8711 17.5762 31.951 18.2567C32.0309 18.9372 31.9111 19.4576 30.8326 19.1774C29.7542 18.8972 28.0366 17.7763 27.6372 18.2967C27.1978 18.7771 27.3975 19.4175 29.0352 19.7378C29.8341 19.8979 29.9539 20.018 29.7542 20.6184C29.5545 21.2189 28.6358 20.7385 26.9981 20.2181C26.5587 20.098 26.9182 22.2596 27.6771 22.6599C28.4361 23.0602 29.9938 23.5406 30.5131 23.9008C31.0323 24.2611 31.1921 26.5428 31.1921 26.5428H27.4375L25.7599 23.6607Z" fill="#676767"/>
</svg>
