<svg width="26" height="25" viewBox="0 0 26 25" fill="none" xmlns="http://www.w3.org/2000/svg">
<path d="M19.4782 0.957083C19.263 1.13496 19.0928 1.36599 18.9827 1.62968C18.8726 1.89337 18.826 2.18158 18.8471 2.46877C18.8492 2.49353 18.8437 2.51836 18.8315 2.53963C18.8193 2.56091 18.8009 2.57754 18.7791 2.5871C18.7573 2.59666 18.7332 2.59865 18.7102 2.59279C18.6873 2.58694 18.6667 2.57353 18.6515 2.55452L17.3427 0.912751C16.6018 -0.0167632 15.2829 -0.184707 14.3828 0.572922C14.1625 0.75774 13.9796 0.987106 13.8448 1.24751C13.71 1.50791 13.6261 1.79408 13.598 2.08915C13.5699 2.38422 13.5982 2.68222 13.6812 2.9656C13.7642 3.24898 13.9003 3.51199 14.0814 3.73915L17.0095 7.41241C17.0285 7.43617 17.0377 7.46688 17.0351 7.49778C17.0325 7.52868 17.0184 7.55724 16.9958 7.57718L8.14417 15.3955C8.1216 15.4155 8.09243 15.4251 8.06307 15.4224C8.03372 15.4197 8.00658 15.4049 7.98764 15.3811L5.08488 11.7397C4.34392 10.8101 3.02508 10.6422 2.12497 11.3998C1.90498 11.5848 1.72237 11.8141 1.58786 12.0745C1.45335 12.3348 1.36967 12.6208 1.34175 12.9157C1.31382 13.2106 1.34221 13.5084 1.42525 13.7916C1.50829 14.0747 1.64429 14.3375 1.82526 14.5646L3.16006 16.239C3.1752 16.2581 3.18416 16.2818 3.18566 16.3066C3.18715 16.3314 3.1811 16.3561 3.16837 16.377C3.15564 16.398 3.1369 16.4141 3.11487 16.4231C3.09284 16.432 3.06867 16.4334 3.04586 16.4269C2.78043 16.3549 2.5022 16.353 2.23592 16.4214C1.96964 16.4899 1.72356 16.6266 1.51956 16.8193C0.844111 17.4548 0.79643 18.5504 1.37884 19.281L4.90401 23.7033C5.48642 24.4339 6.52137 24.5732 7.23154 23.9848C7.44676 23.807 7.61696 23.5759 7.72706 23.3122C7.83715 23.0486 7.88374 22.7603 7.8627 22.4732C7.85964 22.4477 7.86461 22.4219 7.87684 22.3997C7.88907 22.3776 7.90789 22.3602 7.9304 22.3504C7.95291 22.3406 7.97786 22.3388 8.00141 22.3454C8.02495 22.352 8.0458 22.3665 8.06073 22.3868L9.37017 24.0295C10.1097 24.9572 11.43 25.1269 12.3304 24.3697C12.5505 24.1848 12.7331 23.9553 12.8676 23.695C13.0021 23.4346 13.0858 23.1485 13.1137 22.8536C13.1416 22.5586 13.1131 22.2608 13.03 21.9776C12.9469 21.6944 12.8108 21.4316 12.6298 21.2046L9.70166 17.5313C9.68272 17.5075 9.67352 17.4768 9.67609 17.4459C9.67866 17.415 9.69278 17.3865 9.71536 17.3665L18.567 9.5482C18.5896 9.52826 18.6188 9.51858 18.6481 9.52128C18.6775 9.52398 18.7046 9.53885 18.7235 9.56261L21.6263 13.2041C22.3673 14.1336 23.6861 14.3015 24.5862 13.5439C24.8062 13.359 24.9888 13.1296 25.1233 12.8692C25.2578 12.6089 25.3415 12.3229 25.3694 12.028C25.3974 11.7331 25.369 11.4353 25.2859 11.1522C25.2029 10.869 25.0669 10.6062 24.8859 10.3792L23.5511 8.7047C23.536 8.68562 23.527 8.66195 23.5255 8.63714C23.524 8.61232 23.5301 8.58765 23.5428 8.56671C23.5556 8.54576 23.5743 8.52964 23.5963 8.52066C23.6184 8.51169 23.6425 8.51034 23.6653 8.51681C23.9308 8.58886 24.209 8.59074 24.4753 8.52228C24.7416 8.45382 24.9876 8.31715 25.1916 8.12442C25.8671 7.48889 25.9148 6.39333 25.3323 5.66271L21.8065 1.23957C21.2241 0.508952 20.1891 0.369641 19.4782 0.957083Z" fill="#EA5656"/>
</svg>
