<svg width="16" height="16" viewBox="0 0 16 16" fill="none" xmlns="http://www.w3.org/2000/svg">
<path d="M11.1679 7.34644C10.1357 7.34644 9.99286 8.37501 9.99286 8.37501H12.1857C12.1857 8.37501 12.2 7.34644 11.1679 7.34644ZM6.19286 8.37501H4.25V10.1607H6.09643C6.375 10.1536 6.89643 10.075 6.89643 9.29286C6.89643 8.36429 6.19286 8.37501 6.19286 8.37501Z" fill="#EA5656"/>
<path d="M6.66429 6.55C6.66429 5.85715 6.19286 5.85715 6.19286 5.85715H4.25V7.34643H6.07143C6.38571 7.34643 6.66429 7.24286 6.66429 6.55Z" fill="#EA5656"/>
<path d="M8 0C3.58214 0 0 3.58214 0 8C0 12.4179 3.58214 16 8 16C12.4179 16 16 12.4179 16 8C16 3.58214 12.4179 0 8 0ZM9.68571 4.91429H12.4393V5.73571H9.68571V4.91429ZM8.29286 9.22857C8.29286 11.2643 6.17143 11.2 6.17143 11.2H2.7V4.52143H6.17143C7.22857 4.52143 8.06071 5.10357 8.06071 6.3C8.06071 7.49643 7.04286 7.57143 7.04286 7.57143C8.38571 7.57143 8.29286 9.22857 8.29286 9.22857ZM13.4429 9.11786H9.98214C9.98214 10.3571 11.1571 10.2786 11.1571 10.2786C12.2679 10.2786 12.2286 9.56071 12.2286 9.56071H13.4036C13.4036 11.4679 11.1179 11.3357 11.1179 11.3357C8.37857 11.3357 8.55357 8.78214 8.55357 8.78214C8.55357 8.78214 8.55 6.21786 11.1179 6.21786C13.8214 6.22143 13.4429 9.11786 13.4429 9.11786Z" fill="#EA5656"/>
</svg>
