<svg width="16" height="16" viewBox="0 0 16 16" fill="none" xmlns="http://www.w3.org/2000/svg">
<path d="M14.7203 0H1.36714C0.637499 0 0 0.524999 0 1.24607V14.6289C0 15.3539 0.637499 16 1.36714 16H14.7164C15.45 16 16 15.3496 16 14.6289V1.24607C16.0043 0.524999 15.45 0 14.7203 0ZM4.95964 13.3368H2.6675V6.20999H4.95964V13.3368ZM3.89285 5.12642H3.87642C3.14285 5.12642 2.66785 4.58035 2.66785 3.89678C2.66785 3.20071 3.15535 2.6675 3.90535 2.6675C4.65535 2.6675 5.11428 3.19678 5.13071 3.89678C5.13035 4.58035 4.65535 5.12642 3.89285 5.12642ZM13.3368 13.3368H11.0446V9.43999C11.0446 8.50642 10.7111 7.86856 9.88177 7.86856C9.2482 7.86856 8.8732 8.29713 8.70642 8.71463C8.64392 8.86463 8.62713 9.06891 8.62713 9.27748V13.3368H6.33499V6.20999H8.62713V7.20177C8.9607 6.72677 9.48177 6.0432 10.6943 6.0432C12.1989 6.0432 13.3371 7.03499 13.3371 9.1732L13.3368 13.3368Z" fill="#EA5656"/>
</svg>
