<svg width="20" height="20" viewBox="0 0 20 20" fill="none" xmlns="http://www.w3.org/2000/svg">
<path d="M0.296912 1.69976C-0.421536 0.771202 0.7712 -0.421535 1.69976 0.296912L9.38806 6.24555C9.74839 6.52435 10.2516 6.52435 10.6119 6.24555L18.3002 0.296913C19.2288 -0.421534 20.4215 0.771201 19.7031 1.69976L13.7544 9.38806C13.4757 9.74839 13.4757 10.2516 13.7544 10.6119L19.7031 18.3002C20.4215 19.2288 19.2288 20.4215 18.3002 19.7031L10.6119 13.7544C10.2516 13.4757 9.74839 13.4757 9.38806 13.7545L1.69976 19.7031C0.771201 20.4215 -0.421537 19.2288 0.296911 18.3002L6.24555 10.6119C6.52435 10.2516 6.52434 9.74839 6.24555 9.38806L0.296912 1.69976Z" fill="#EA5656"/>
</svg>
