<svg width="10" height="12" viewBox="0 0 10 12" fill="none" xmlns="http://www.w3.org/2000/svg">
<path fill-rule="evenodd" clip-rule="evenodd" d="M5 0C5.25104 0 5.45455 0.191878 5.45455 0.428571V7.53677L6.95132 6.12553C7.12883 5.95816 7.41663 5.95816 7.59414 6.12553C7.77165 6.29289 7.77165 6.56425 7.59414 6.73162L5.32141 8.87448C5.1439 9.04184 4.8561 9.04184 4.67859 8.87448L2.40586 6.73162C2.22835 6.56425 2.22835 6.29289 2.40586 6.12553C2.58337 5.95816 2.87117 5.95816 3.04868 6.12553L4.54545 7.53677V0.428571C4.54545 0.191878 4.74896 0 5 0ZM1.59091 4.28571C1.41008 4.28571 1.23666 4.35344 1.10879 4.474C0.980925 4.59456 0.909091 4.75807 0.909091 4.92857V10.5C0.909091 10.6705 0.980925 10.834 1.10879 10.9546C1.23666 11.0751 1.41008 11.1429 1.59091 11.1429H8.40909C8.58992 11.1429 8.76334 11.0751 8.89121 10.9546C9.01908 10.834 9.09091 10.6705 9.09091 10.5V4.92857C9.09091 4.75807 9.01908 4.59456 8.89121 4.474C8.76334 4.35344 8.58992 4.28571 8.40909 4.28571H7.27273C7.02169 4.28571 6.81818 4.09384 6.81818 3.85714C6.81818 3.62045 7.02169 3.42857 7.27273 3.42857H8.40909C8.83103 3.42857 9.23568 3.58661 9.53403 3.86791C9.83239 4.14922 10 4.53075 10 4.92857V10.5C10 10.8978 9.83239 11.2794 9.53403 11.5607C9.23568 11.842 8.83103 12 8.40909 12H1.59091C1.16897 12 0.76432 11.842 0.465966 11.5607C0.167613 11.2794 0 10.8978 0 10.5V4.92857C0 4.53075 0.167613 4.14922 0.465966 3.86791C0.76432 3.58661 1.16897 3.42857 1.59091 3.42857H2.72727C2.97831 3.42857 3.18182 3.62045 3.18182 3.85714C3.18182 4.09384 2.97831 4.28571 2.72727 4.28571H1.59091Z" fill="#ECF7C5"/>
</svg>
