<svg width="10" height="10" viewBox="0 0 10 10" fill="none" xmlns="http://www.w3.org/2000/svg">
<path d="M5 0C2.24303 0 0 2.24303 0 5C0 7.75697 2.24303 10 5 10C7.75697 10 10 7.75697 10 5C10 2.24303 7.75697 0 5 0ZM5 7.69014C4.90491 7.69014 4.81196 7.66195 4.7329 7.60912C4.65384 7.55629 4.59222 7.48121 4.55583 7.39336C4.51944 7.30551 4.50992 7.20884 4.52847 7.11558C4.54702 7.02232 4.59281 6.93666 4.66004 6.86942C4.72728 6.80218 4.81295 6.75639 4.90621 6.73784C4.99947 6.71929 5.09613 6.72881 5.18398 6.7652C5.27183 6.80159 5.34692 6.86321 5.39974 6.94227C5.45257 7.02134 5.48077 7.11429 5.48077 7.20938C5.48077 7.33688 5.43012 7.45917 5.33996 7.54933C5.24979 7.63949 5.12751 7.69014 5 7.69014ZM5.52212 2.85481L5.38413 5.7875C5.38413 5.88951 5.34361 5.98733 5.27148 6.05946C5.19935 6.13159 5.10153 6.17212 4.99952 6.17212C4.89751 6.17212 4.79968 6.13159 4.72756 6.05946C4.65543 5.98733 4.6149 5.88951 4.6149 5.7875L4.47692 2.85625V2.85505C4.4739 2.7846 4.48516 2.71426 4.51004 2.64828C4.53491 2.5823 4.57289 2.52204 4.62167 2.47112C4.67045 2.4202 4.72903 2.37968 4.79388 2.35199C4.85874 2.32431 4.92852 2.31004 4.99904 2.31004C5.06955 2.31004 5.13934 2.32431 5.20419 2.35199C5.26905 2.37968 5.32763 2.4202 5.37641 2.47112C5.42519 2.52204 5.46316 2.5823 5.48804 2.64828C5.51291 2.71426 5.52418 2.7846 5.52115 2.85505L5.52212 2.85481Z" fill="#135AFF"/>
</svg>
